HIERARCHY
ROOT Hips
{
  OFFSET 5.84602e-005 68.8428 3.50346
  CHANNELS 6 Xposition Yposition Zposition Zrotation Xrotation Yrotation
  JOINT Spine
  {
    OFFSET 0 8.597 -4.6522
    CHANNELS 3 Zrotation Xrotation Yrotation
    JOINT Spine1
    {
      OFFSET 0 7.8454 0.4098
      CHANNELS 3 Zrotation Xrotation Yrotation
      JOINT Spine2
      {
        OFFSET 0 9.7078 -2.1609
        CHANNELS 3 Zrotation Xrotation Yrotation
        JOINT Neck
        {
          OFFSET 0 21.8761 -0.4549
          CHANNELS 3 Zrotation Xrotation Yrotation
          JOINT Head
          {
            OFFSET 0 12.3537 3.3602
            CHANNELS 3 Zrotation Xrotation Yrotation
            End Site
            {
              OFFSET 0.0001 18.9506 0.5657
            }
          }
        }
        JOINT LeftShoulder
        {
          OFFSET 2.2086 21.1115 7.2329
          CHANNELS 3 Zrotation Xrotation Yrotation
          JOINT LeftArm
          {
            OFFSET 13.1193 3.0282 -4.8998
            CHANNELS 3 Zrotation Xrotation Yrotation
            JOINT LeftForeArm
            {
              OFFSET 27.4081 -0.0973053 -0.2375
              CHANNELS 3 Zrotation Xrotation Yrotation
              JOINT LeftHand
              {
                OFFSET 22.8641 0.0662994 -0.1369
                CHANNELS 3 Zrotation Xrotation Yrotation
                JOINT LeftHandIndex1
                {
                  OFFSET 8.8614 0.775009 2.4612
                  CHANNELS 3 Zrotation Xrotation Yrotation
                  JOINT LeftHandIndex2
                  {
                    OFFSET 3.3146 -0.808304 0.5841
                    CHANNELS 3 Zrotation Xrotation Yrotation
                    JOINT LeftHandIndex3
                    {
                      OFFSET 2.2628 -0.552002 0.3989
                      CHANNELS 3 Zrotation Xrotation Yrotation
                      End Site
                      {
                        OFFSET 1.6102 -0.4807 0.2612
                      }
                    }
                  }
                }
                JOINT LeftHandMiddle1
                {
                  OFFSET 8.9937 0.895004 0.2143
                  CHANNELS 3 Zrotation Xrotation Yrotation
                  JOINT LeftHandMiddle2
                  {
                    OFFSET 4.0984 0.0113983 -0.0242
                    CHANNELS 3 Zrotation Xrotation Yrotation
                    JOINT LeftHandMiddle3
                    {
                      OFFSET 2.2716 0.00689697 -0.0138001
                      CHANNELS 3 Zrotation Xrotation Yrotation
                      End Site
                      {
                        OFFSET 2.0404 -0.1441 0.0027
                      }
                    }
                  }
                }
                JOINT LeftHandRing1
                {
                  OFFSET 8.5234 0.597198 -2.0164
                  CHANNELS 3 Zrotation Xrotation Yrotation
                  JOINT LeftHandRing2
                  {
                    OFFSET 3.7188 -0.188293 -0.2328
                    CHANNELS 3 Zrotation Xrotation Yrotation
                    JOINT LeftHandRing3
                    {
                      OFFSET 2.1191 -0.106598 -0.1332
                      CHANNELS 3 Zrotation Xrotation Yrotation
                      End Site
                      {
                        OFFSET 1.8737 -0.2304 -0.0886
                      }
                    }
                  }
                }
                JOINT LeftHandPinky1
                {
                  OFFSET 7.9094 -0.601089 -3.4825
                  CHANNELS 3 Zrotation Xrotation Yrotation
                  JOINT LeftHandPinky2
                  {
                    OFFSET 2.2874 -0.477005 -0.6314
                    CHANNELS 3 Zrotation Xrotation Yrotation
                    JOINT LeftHandPinky3
                    {
                      OFFSET 1.6774 -0.349396 -0.4633
                      CHANNELS 3 Zrotation Xrotation Yrotation
                      End Site
                      {
                        OFFSET 1.4888 -0.4091 -0.3416
                      }
                    }
                  }
                }
                JOINT LeftHandThumb1
                {
                  OFFSET 1.833 -1.3875 1.3896
                  CHANNELS 3 Zrotation Xrotation Yrotation
                  JOINT LeftHandThumb2
                  {
                    OFFSET 3.4129 -1.121 2.5732
                    CHANNELS 3 Zrotation Xrotation Yrotation
                    JOINT LeftHandThumb3
                    {
                      OFFSET 2.2474 -0.804199 1.6192
                      CHANNELS 3 Zrotation Xrotation Yrotation
                      End Site
                      {
                        OFFSET 1.6527 -0.5689 1.1317
                      }
                    }
                  }
                }
              }
            }
          }
        }
        JOINT RightShoulder
        {
          OFFSET -2.2086 21.1115 7.2329
          CHANNELS 3 Zrotation Xrotation Yrotation
          JOINT RightArm
          {
            OFFSET -13.1216 3.0287 -4.9007
            CHANNELS 3 Zrotation Xrotation Yrotation
            JOINT RightForeArm
            {
              OFFSET -27.4081 -0.0973053 -0.2375
              CHANNELS 3 Zrotation Xrotation Yrotation
              JOINT RightHand
              {
                OFFSET -22.8641 0.0664063 -0.1369
                CHANNELS 3 Zrotation Xrotation Yrotation
                JOINT RightHandIndex1
                {
                  OFFSET -8.8614 0.774994 2.4612
                  CHANNELS 3 Zrotation Xrotation Yrotation
                  JOINT RightHandIndex2
                  {
                    OFFSET -3.3146 -0.808304 0.5841
                    CHANNELS 3 Zrotation Xrotation Yrotation
                    JOINT RightHandIndex3
                    {
                      OFFSET -2.2628 -0.552002 0.3989
                      CHANNELS 3 Zrotation Xrotation Yrotation
                      End Site
                      {
                        OFFSET -1.6102 -0.4807 0.2612
                      }
                    }
                  }
                }
                JOINT RightHandMiddle1
                {
                  OFFSET -8.9937 0.894989 0.2143
                  CHANNELS 3 Zrotation Xrotation Yrotation
                  JOINT RightHandMiddle2
                  {
                    OFFSET -4.0984 0.0113983 -0.0242
                    CHANNELS 3 Zrotation Xrotation Yrotation
                    JOINT RightHandMiddle3
                    {
                      OFFSET -2.2716 0.00691223 -0.0138001
                      CHANNELS 3 Zrotation Xrotation Yrotation
                      End Site
                      {
                        OFFSET -2.0404 -0.1441 0.0027
                      }
                    }
                  }
                }
                JOINT RightHandRing1
                {
                  OFFSET -8.5234 0.597198 -2.0164
                  CHANNELS 3 Zrotation Xrotation Yrotation
                  JOINT RightHandRing2
                  {
                    OFFSET -3.7188 -0.188309 -0.2328
                    CHANNELS 3 Zrotation Xrotation Yrotation
                    JOINT RightHandRing3
                    {
                      OFFSET -2.1191 -0.106598 -0.1332
                      CHANNELS 3 Zrotation Xrotation Yrotation
                      End Site
                      {
                        OFFSET -1.8737 -0.2304 -0.0886
                      }
                    }
                  }
                }
                JOINT RightHandPinky1
                {
                  OFFSET -7.9094 -0.601105 -3.4825
                  CHANNELS 3 Zrotation Xrotation Yrotation
                  JOINT RightHandPinky2
                  {
                    OFFSET -2.2874 -0.477005 -0.6314
                    CHANNELS 3 Zrotation Xrotation Yrotation
                    JOINT RightHandPinky3
                    {
                      OFFSET -1.6774 -0.349396 -0.4633
                      CHANNELS 3 Zrotation Xrotation Yrotation
                      End Site
                      {
                        OFFSET -1.4888 -0.4091 -0.3416
                      }
                    }
                  }
                }
                JOINT RightHandThumb1
                {
                  OFFSET -1.833 -1.38751 1.3896
                  CHANNELS 3 Zrotation Xrotation Yrotation
                  JOINT RightHandThumb2
                  {
                    OFFSET -3.41299 -1.12099 2.5732
                    CHANNELS 3 Zrotation Xrotation Yrotation
                    JOINT RightHandThumb3
                    {
                      OFFSET -2.24741 -0.804108 1.6192
                      CHANNELS 3 Zrotation Xrotation Yrotation
                      End Site
                      {
                        OFFSET -1.6527 -0.5689 1.1317
                      }
                    }
                  }
                }
              }
            }
          }
        }
      }
    }
  }
  JOINT RightUpLeg
  {
    OFFSET -9.1966 3.8861 -0.7581
    CHANNELS 3 Zrotation Xrotation Yrotation
    JOINT RightLeg
    {
      OFFSET -0.7359 -41.0265 0
      CHANNELS 3 Zrotation Xrotation Yrotation
      JOINT RightFoot
      {
        OFFSET 0 -40.2855 0
        CHANNELS 3 Zrotation Xrotation Yrotation
        JOINT RightToeBase
        {
          OFFSET 0 -5.6122 11.7359
          CHANNELS 3 Zrotation Xrotation Yrotation
          End Site
          {
            OFFSET 0 0 7.8731
          }
        }
      }
    }
  }
  JOINT LeftUpLeg
  {
    OFFSET 9.1965 3.8864 -0.7581
    CHANNELS 3 Zrotation Xrotation Yrotation
    JOINT LeftLeg
    {
      OFFSET 0.7359 -41.0268 0
      CHANNELS 3 Zrotation Xrotation Yrotation
      JOINT LeftFoot
      {
        OFFSET 0 -40.2855 0
        CHANNELS 3 Zrotation Xrotation Yrotation
        JOINT LeftToeBase
        {
          OFFSET 0 -5.6122 11.7359
          CHANNELS 3 Zrotation Xrotation Yrotation
          End Site
          {
            OFFSET 0 0 7.8731
          }
        }
      }
    }
  }
}
MOTION
Frames:	4
Frame Time:	0.0333333
5.84602e-005 68.8428 3.50346 0 0 -0 0 0 -0 0 0 -0 0 0 -0 0 0 -0 0 0 -0 0 0 -0 0 0 -0 0 0 -0 0 0 -0 0 0 -0 0 0 -0 0 0 -0 0 0 -0 -0.0146107 -8.87603e-005 -2.63497e-007 2.99804e-018 -2.42657e-020 -1.42182e-022 0 0 -0 -0.0187562 -0.001176 5.858e-005 5.06224e-018 3.88251e-019 1.21329e-020 0 0 -0 -0.012269 -0.00324817 0.000675346 -1.74678e-018 3.88251e-019 -0 0 0 -0 0 0 -0 0 0 -0 0 0 -0 0 0 -0 0 0 -0 0 0 -0 0 0 -0 0 0 -0 0 0 -0 0 0 -0 0.0149955 -9.10982e-005 2.64101e-007 -9.69331e-018 1.21329e-020 -4.7394e-023 0 0 -0 0.0189956 -0.00119102 -5.96516e-005 -5.41541e-019 0 2.42657e-020 0 0 -0 0.0122698 -0.00324857 -0.000673756 -2.00796e-019 0 -1.94126e-019 0 0 -0 0 0 -0 0 0 -0 3.39842 1.33031 -0.0637918 -5.65207e-008 0.834868 -0.000436188 -3.39935 -2.16518 -0.0642563 -8.89002e-024 -1.18485e-023 -1.48106e-024 -3.39844 1.35642 0.0640283 -3.18788e-007 0.782166 -0.000588827 3.39931 -2.13858 0.0634662 1.1399e-023 0 -0 
6.34803 15.2026 -20.1398 0 0 -67.0038 -0.101848 2.4187 5.68201 -0.443705 4.81542 11.3835 -0.443705 4.81542 11.3835 -0.155443 0.732619 -0.0427264 0.0192255 -0.152119 -0.00522427 -13.8883 6.10095 -60.4684 -9.95027 5.81151 -32.1782 -5.92203 8.25622 -41.6538 1.0008 30.9967 -0.00351894 4.84538e-016 7.95139e-016 3.97569e-016 -2.69602e-015 -7.95139e-016 -0 -2.67117e-015 7.95139e-016 -1.98785e-016 4.84538e-016 7.95139e-016 3.97569e-016 -0.0145971 -8.86641e-005 -7.20787e-007 1.80149e-015 0 -0 4.84538e-016 7.95139e-016 3.97569e-016 -0.0187139 -0.00117356 5.96269e-005 3.23025e-016 2.54444e-014 5.96354e-016 4.84538e-016 7.95139e-016 3.97569e-016 -0.0122797 -0.00325141 0.000676456 -4.72114e-016 -1.59028e-015 1.98785e-016 4.84538e-016 7.95139e-016 3.97569e-016 -2.69602e-015 -7.95139e-016 -0 -2.67117e-015 7.95139e-016 -1.98785e-016 31.0643 3.39898 19.6951 19.1054 3.8931 23.0109 4.29333 -0.260133 23.8651 -34.8858 -25.7744 -17.0635 -3.77429e-007 -2.34016e-007 -7.28416e-007 3.18055e-015 -3.18055e-015 -7.95139e-016 5.66143e-007 3.51025e-007 1.09262e-006 -3.77429e-007 -2.34016e-007 -7.28416e-007 0.0149858 -8.719e-005 -1.38519e-006 5.6615e-007 3.51167e-007 1.09258e-006 -3.77429e-007 -2.34016e-007 -7.28416e-007 0.0190026 -0.00118973 -5.71937e-005 5.66162e-007 3.51206e-007 1.09256e-006 -3.77429e-007 -2.34016e-007 -7.28416e-007 0.0122571 -0.00324735 -0.000673705 5.66177e-007 3.51143e-007 1.09257e-006 -3.77429e-007 -2.34016e-007 -7.28416e-007 3.18055e-015 -3.18055e-015 -7.95139e-016 5.66143e-007 3.51025e-007 1.09262e-006 -26.2588 -46.4369 -26.5264 -163.685 31.1977 167.466 -6.41217 51.6331 -7.74172 7.54044e-007 1.46337e-006 -3.45195e-007 59.8687 -21.5703 55.4704 174.916 28.2957 -169.519 3.29883 52.3675 10.7555 -2.50178e-006 1.23708e-006 -2.49272e-006 
6.34803 15.2026 -20.1398 0 0 -67.0038 -0.0847951 2.38269 5.67856 -0.405896 4.74525 11.3753 -0.405897 4.74525 11.3753 -0.314576 1.458 -0.044942 0.0409188 -0.301583 -0.00627216 -13.8399 6.21348 -60.1352 -9.95026 5.81151 -32.1783 -5.96129 8.29129 -41.853 0.648977 31.0113 0.224348 -1.31247e-008 -7.55024e-008 4.19885e-007 1.67954e-006 2.99296e-008 5.24991e-008 -1.31248e-008 -7.55024e-008 4.19885e-007 -1.31247e-008 -7.55024e-008 4.19885e-007 -0.0146353 -8.85987e-005 -1.82719e-007 -1.31254e-008 -7.5556e-008 4.19875e-007 -1.31247e-008 -7.55024e-008 4.19885e-007 -0.018694 -0.00117222 5.89861e-005 -1.31217e-008 -7.5571e-008 4.19873e-007 -1.31247e-008 -7.55024e-008 4.19885e-007 -0.0122162 -0.00323359 0.000672567 -1.31141e-008 -7.55473e-008 4.19877e-007 -1.31247e-008 -7.55024e-008 4.19885e-007 1.67954e-006 2.99296e-008 5.24991e-008 -1.31248e-008 -7.55024e-008 4.19885e-007 31.0511 3.42171 19.5395 19.2954 3.96887 23.1204 5.34462 0.172259 24.0706 -37.1259 -24.8555 -17.3677 -3.75872e-007 -2.26658e-007 -7.31496e-007 -5.63808e-007 -3.39987e-007 -1.09724e-006 -3.75872e-007 -2.26658e-007 -7.31496e-007 -3.75872e-007 -2.26658e-007 -7.31496e-007 0.0149641 -9.27019e-005 7.14335e-007 -1.38742e-006 2.70692e-006 -5.86102e-007 -3.75872e-007 -2.26658e-007 -7.31496e-007 0.0190122 -0.00118722 -5.97505e-005 -1.38708e-006 2.70681e-006 -5.86189e-007 -3.75872e-007 -2.26658e-007 -7.31496e-007 0.0123013 -0.00326038 -0.000679173 -1.38767e-006 2.70666e-006 -5.86058e-007 -3.75872e-007 -2.26658e-007 -7.31496e-007 -5.63808e-007 -3.39987e-007 -1.09724e-006 -3.75872e-007 -2.26658e-007 -7.31496e-007 -26.2588 -46.4369 -26.5264 -163.685 31.1977 167.466 -6.41213 51.6331 -7.74174 -7.54044e-007 -1.46337e-006 3.45195e-007 59.8687 -21.5703 55.4703 174.916 28.2957 -169.519 3.29882 52.3675 10.7555 2.2259e-007 1.12148e-006 -6.07259e-007 
6.34803 15.2026 -20.1398 0 0 -67.0038 -0.0677771 2.34663 5.67494 -0.368137 4.67505 11.3669 -0.36814 4.67505 11.3669 -0.473942 2.18419 -0.045233 0.0626126 -0.45105 -0.00726737 -13.7922 6.32631 -59.8021 -9.95026 5.81152 -32.1783 -6.00042 8.3265 -42.0522 0.297009 31.0247 0.45237 4.96962e-015 -7.95139e-016 -1.98785e-016 -8.97697e-007 -2.53913e-008 -1.46814e-008 8.97697e-007 2.53913e-008 1.46814e-008 4.96962e-015 -7.95139e-016 -1.98785e-016 -0.014605 -8.8322e-005 -3.32803e-007 1.01877e-014 0 1.98785e-016 4.96962e-015 -7.95139e-016 -1.98785e-016 -0.0188318 -0.00118026 5.91282e-005 -4.2366e-015 7.95139e-016 5.96354e-016 4.96962e-015 -7.95139e-016 -1.98785e-016 -0.0122664 -0.00324605 0.000676103 -8.26199e-015 7.95139e-016 -1.98785e-016 4.96962e-015 -7.95139e-016 -1.98785e-016 -8.97697e-007 -2.53913e-008 -1.46814e-008 8.97697e-007 2.53913e-008 1.46814e-008 31.038 3.44445 19.3838 19.4852 4.045 23.2295 6.3956 0.608817 24.2683 -39.3544 -23.9223 -17.6313 7.95139e-016 -6.36111e-015 -1.59028e-015 -4.7296e-007 1.4445e-007 4.55632e-007 -1.09348e-006 2.95948e-006 1.94872e-007 7.95139e-016 -6.36111e-015 -1.59028e-015 0.0150002 -9.14243e-005 1.42198e-006 7.95139e-016 -6.36111e-015 -6.36111e-015 7.95139e-016 -6.36111e-015 -1.59028e-015 0.0189903 -0.00119121 -5.76944e-005 -1.09186e-006 2.95941e-006 1.94388e-007 7.95139e-016 -6.36111e-015 -1.59028e-015 0.0122391 -0.00323654 -0.000676515 -1.09245e-006 2.95922e-006 1.94529e-007 7.95139e-016 -6.36111e-015 -1.59028e-015 -4.7296e-007 1.4445e-007 4.55632e-007 -1.09348e-006 2.95948e-006 1.94872e-007 -26.2588 -46.4369 -26.5264 -163.685 31.1977 167.466 -6.41215 51.6331 -7.7417 5.0225e-006 2.18104e-006 -1.70058e-006 59.8687 -21.5705 55.4704 174.917 28.2957 -169.519 3.29881 52.3676 10.7555 4.93112e-007 1.35261e-007 -3.49706e-006 
